<svg width="23" height="28" viewBox="0 0 23 28" fill="none" xmlns="http://www.w3.org/2000/svg">
<path d="M14.95 24.5C14.95 26.3643 13.3492 28 11.5333 28C9.7175 28 8.05 26.3643 8.05 24.5H14.95ZM15.1075 4.6025C14.367 4.16617 13.9092 3.35417 13.9104 2.47917V2.47567C13.9115 1.10833 12.8317 0 11.5 0C10.1683 0 9.08845 1.10833 9.08845 2.47567V2.47917C9.0896 3.35533 8.63305 4.16617 7.8913 4.6025C2.5231 7.763 5.60855 18.27 0 20.1262V22.1667H23V20.1262C17.3914 18.27 20.4781 7.76183 15.1075 4.6025ZM11.5 1.16667C12.1348 1.16667 12.65 1.6905 12.65 2.33333C12.65 2.97733 12.1348 3.5 11.5 3.5C10.8652 3.5 10.35 2.97733 10.35 2.33333C10.35 1.6905 10.8652 1.16667 11.5 1.16667ZM4.08135 19.8333C5.4487 17.8885 5.9271 15.2938 6.33995 13.0492C6.854 10.2608 7.3393 7.6265 9.04705 6.622C10.634 5.6875 12.4464 5.73533 13.9541 6.622C15.6618 7.6265 16.1472 10.2608 16.6612 13.0492C17.0741 15.2938 17.5525 17.8885 18.9198 19.8333H4.08135Z" fill="#FFA800"/>
</svg>
