<svg width="36" height="36" viewBox="0 0 36 36" fill="none" xmlns="http://www.w3.org/2000/svg">
<path d="M30 4.5C30 2.0145 27.984 0 25.5 0C23.016 0 21 2.0145 21 4.5C21 4.968 21.0915 5.409 21.2235 5.8335L14.9085 10.569C15.618 11.2755 16.2255 12.084 16.71 12.9675L23.0055 8.2455C23.721 8.7195 24.5775 9 25.5 9C27.984 9 30 6.9855 30 4.5ZM27 4.5C27 5.3265 26.328 6 25.5 6C24.672 6 24 5.3265 24 4.5C24 3.6735 24.672 3 25.5 3C26.328 3 27 3.6735 27 4.5ZM31.5 22.593C33.984 22.593 36 20.5785 36 18.093C36 15.6075 33.984 13.593 31.5 13.593C29.5785 13.593 27.9495 14.8035 27.3045 16.5H17.88C17.9505 16.992 18 17.49 18 18C18 18.51 17.9505 19.008 17.88 19.5H27.246C27.84 21.2925 29.5095 22.593 31.5 22.593V22.593ZM30 18.093C30 17.2665 30.672 16.593 31.5 16.593C32.328 16.593 33 17.2665 33 18.093C33 18.9195 32.328 19.593 31.5 19.593C30.672 19.593 30 18.921 30 18.093ZM0 18C0 22.1415 3.357 25.5 7.5 25.5C11.643 25.5 15 22.1415 15 18C15 13.8585 11.643 10.5 7.5 10.5C3.357 10.5 0 13.8585 0 18ZM3 18C3 15.519 5.019 13.5 7.5 13.5C9.981 13.5 12 15.519 12 18C12 20.481 9.981 22.5 7.5 22.5C5.019 22.5 3 20.481 3 18ZM14.9085 25.4325L21.2235 30.168C21.0915 30.591 21 31.032 21 31.5C21 33.9855 23.016 36 25.5 36C27.984 36 30 33.9855 30 31.5C30 29.0145 27.984 27 25.5 27C24.5775 27 23.721 27.2805 23.007 27.756L16.7115 23.034C16.2255 23.9175 15.618 24.7245 14.9085 25.4325V25.4325ZM24 31.5C24 30.6735 24.672 30 25.5 30C26.328 30 27 30.6735 27 31.5C27 32.3265 26.328 33 25.5 33C24.672 33 24 32.3265 24 31.5Z" fill="#FFA800"/>
</svg>
