<svg width="26" height="34" viewBox="0 0 26 34" fill="none" xmlns="http://www.w3.org/2000/svg">
<path d="M11.6304 25.2492C10.2727 26 8.10753 27.0838 4.20188 28.2072C3.77723 28.3291 3.34536 28.1265 3.16625 27.8021C2.85715 27.285 3.12725 26.6177 3.71801 26.4463C7.98765 25.2124 10.043 24.045 11.2693 23.3466C13.0315 22.345 13.4518 22.3734 14.7012 23.3452C15.071 23.6328 15.5852 24.0323 16.329 24.504C16.7595 24.7775 16.875 25.3413 16.5876 25.755L16.5688 25.7833C16.2872 26.187 15.7267 26.2975 15.3064 26.0312C14.9525 25.806 14.6449 25.5949 14.3791 25.405C13.1037 24.4899 12.978 24.5026 11.6304 25.2492ZM1.17443 16.8186C5.0743 15.7334 7.98332 13.6098 9.14028 10.9309C9.78159 9.44338 11.0498 8.81296 12.2934 8.81296C14.356 8.81296 16.3522 10.5484 15.305 12.9723C14.6694 14.4485 13.7855 15.7702 12.7123 16.9418C12.3801 17.3045 12.3902 17.8556 12.7354 18.2069C13.0965 18.5724 13.6815 18.6305 14.2202 18.0313C15.4075 16.7095 16.3522 15.2447 17.0296 13.6778C17.7084 12.1025 17.5914 10.5158 16.6988 9.20822C15.7657 7.84254 14.0772 6.99254 12.292 6.99254C11.2823 6.99254 10.3117 7.26454 9.48405 7.78021C8.57841 8.34263 7.86343 9.18838 7.41567 10.2254C6.48114 12.3915 4.03 14.1312 0.693445 15.0605C0.277459 15.1767 -0.00708761 15.5507 0.000134377 15.9714C0.0102452 16.5608 0.592337 16.9801 1.17443 16.8186ZM11.3358 20.6224C11.7792 20.2979 11.8269 19.6704 11.4484 19.2864L11.4239 19.2609C11.1018 18.9351 10.5818 18.8954 10.212 19.1674C7.88076 20.8717 5.06708 22.0957 2.08007 22.8352C1.82152 22.8989 1.60341 23.0661 1.47631 23.2928C1.35065 23.5209 1.32609 23.79 1.41275 24.0351C1.5673 24.4743 2.04107 24.7222 2.50327 24.6089C5.36896 23.902 8.01943 22.7941 10.2626 21.3576C10.6309 21.121 10.9891 20.8759 11.3358 20.6224ZM13.2857 12.1676C13.4865 11.7044 13.2626 11.1703 12.7859 10.9762C12.3093 10.7821 11.7619 11.0003 11.5611 11.4636C10.0329 15.0038 6.17204 17.7352 1.08488 18.9379C0.601003 19.0527 0.289014 19.5103 0.3699 19.9891C0.458008 20.5019 0.972213 20.8377 1.49653 20.7144C6.50714 19.5315 11.2953 16.7789 13.2857 12.1676ZM13.602 3.47211C10.3637 3.1321 7.28134 4.44678 5.46573 6.50237C5.09019 6.92737 5.18696 7.57479 5.65784 7.88363C6.04205 8.13296 6.5577 8.06496 6.85524 7.72213C8.23031 6.14253 10.7002 4.99928 13.4027 5.2812C15.617 5.51353 17.642 6.65962 18.7686 8.54946C18.9911 8.92346 19.4533 9.0963 19.8765 8.96313C20.4384 8.78605 20.6911 8.14713 20.395 7.64988C18.9752 5.26703 16.4417 3.76961 13.602 3.47211ZM1.6713 7.07187C2.06851 7.33821 2.57549 7.23479 2.83982 6.84662L3.40024 6.03487C5.21441 3.48627 8.15664 1.99168 11.5452 1.81601C12.0464 1.79051 12.4407 1.38676 12.4407 0.898009C12.4407 0.383757 11.9973 -0.0256616 11.4701 0.00125524C8.18553 0.171256 5.0483 1.42218 2.7806 3.87302C2.16384 4.55019 1.78396 5.03895 1.41564 5.86912C1.17298 6.41029 1.26687 6.80129 1.6713 7.07187ZM1.43153 12.8987C3.27458 12.3079 4.25822 11.4678 4.95442 10.5569C5.27363 10.1418 5.16674 9.55105 4.72765 9.26488C4.31021 8.99288 3.74979 9.08496 3.44647 9.47313C2.90915 10.1588 2.19417 10.7396 0.859551 11.1689C0.536006 11.2723 0.283236 11.5401 0.229793 11.9339C0.14313 12.5856 0.785886 13.1055 1.43153 12.8987ZM24.7123 20.8944C22.9126 20.3532 21.7658 19.676 21.2342 18.8473C20.5741 17.8188 20.8226 16.4503 21.11 14.8636C21.2978 13.8223 21.5072 12.6606 21.4725 11.4338C21.4639 11.1448 21.3165 10.8756 21.0739 10.7085C20.8312 10.5413 20.5207 10.496 20.2376 10.5852C19.849 10.7085 19.5919 11.0655 19.6049 11.4636C19.6382 12.5048 19.4533 13.5347 19.2698 14.5491C18.9463 16.3398 18.6112 18.1913 19.6512 19.8106C20.4355 21.0346 21.9203 21.9611 24.24 22.6539C24.7297 22.8012 25.2482 22.5164 25.3739 22.0305C25.4952 21.5418 25.2078 21.0431 24.7123 20.8944ZM23.6752 24.215C20.33 23.1539 18.1403 21.6934 17.0296 19.7894C16.7739 19.3516 16.2034 19.1986 15.7542 19.4479C15.305 19.6958 15.149 20.2512 15.4032 20.6889C16.7436 22.9839 19.2554 24.7109 23.0368 25.9235C23.5164 26.0765 24.0363 25.847 24.2313 25.3937C24.435 24.9205 24.1808 24.3751 23.6752 24.215ZM22.059 27.1943C21.0176 26.8217 20.1148 26.4548 19.3291 26.1006C18.9203 25.9165 18.435 26.0468 18.1836 26.4095C17.8225 26.928 18.0522 27.5315 18.539 27.7496C19.3782 28.1279 20.3416 28.5189 21.448 28.9141C21.8755 29.0671 22.332 28.8801 22.5284 28.5614C22.8577 28.067 22.6295 27.3997 22.059 27.1943ZM8.72718 29.6026C8.51341 29.1918 8.01365 29.0076 7.57455 29.1748C7.15423 29.3349 6.69636 29.5006 6.19226 29.6721C5.88316 29.7769 5.65062 30.0291 5.5784 30.3407C5.4224 31.0151 6.07382 31.6384 6.71947 31.4217C7.28278 31.2318 7.79266 31.0477 8.25775 30.8706C8.73007 30.6907 9.00739 30.141 8.72718 29.6026ZM25.3854 17.6658C25.1038 17.5524 24.903 17.4207 24.7845 17.2705C24.4552 16.8512 24.6184 15.9487 24.8235 14.8055C25.1601 12.9369 25.6223 10.3784 24.4552 7.21071C23.1062 3.55286 19.3551 1.08784 15.2703 0.277507C14.6824 0.161339 14.135 0.600508 14.135 1.17993C14.135 1.60635 14.4427 1.97326 14.8731 2.05685C18.63 2.78785 21.6473 4.98936 22.6945 7.82554C23.6955 10.5385 23.2997 12.7286 22.9819 14.4896C22.7089 16.0097 22.4706 17.3229 23.3011 18.3769C23.6362 18.8048 24.1172 19.1348 24.7759 19.3828C25.3262 19.5896 25.9271 19.234 25.9935 18.6673C26.0441 18.2395 25.7956 17.8301 25.3854 17.6658ZM15.9521 32.2986C12.3468 30.7459 13.3131 30.7445 9.88414 32.3042C9.55482 32.453 9.34972 32.7817 9.36705 33.1344C9.39305 33.6841 9.90003 34 10.3695 34C10.5023 34 10.6323 33.9745 10.7464 33.9221C13.2019 32.7987 12.3483 32.7321 15.1172 33.9292C15.227 33.9773 15.3497 34 15.4783 34C15.9405 34 16.4561 33.6997 16.4865 33.1457C16.5067 32.7831 16.2944 32.4459 15.9521 32.2986ZM19.6598 30.022C17.3791 29.1224 15.7441 28.2582 14.7041 27.71C13.0676 26.8458 12.8769 26.6928 10.888 27.6958L10.706 27.7879C10.2568 28.0131 10.0791 28.5486 10.3088 28.9864C10.5746 29.4964 11.1408 29.6168 11.564 29.4043C12.3916 28.9892 12.8293 28.7895 13.8129 29.3094C14.8991 29.8817 16.6121 30.7856 19.0012 31.7262C19.6772 31.9926 20.3661 31.4061 20.2376 30.7147C20.1827 30.4031 19.9631 30.1424 19.6598 30.022Z" fill="#FFA800"/>
</svg>
