<svg width="36" height="36" viewBox="0 0 36 36" fill="none" xmlns="http://www.w3.org/2000/svg">
<path d="M33 12V18H3V12H33ZM36 9H0V21H36V9ZM4.5 16.5L5.7945 13.5H7.707L6.4125 16.5H4.5ZM7.599 16.5L8.895 13.5H10.8075L9.513 16.5H7.599ZM10.6995 16.5L11.994 13.5H13.9065L12.6105 16.5H10.6995ZM13.7985 16.5L15.093 13.5H17.004L15.7095 16.5H13.7985ZM18.81 16.5H16.899L18.1935 13.5H20.106L18.81 16.5ZM30 16.5C29.172 16.5 28.5 15.828 28.5 15C28.5 14.172 29.172 13.5 30 13.5C30.8295 13.5 31.5 14.172 31.5 15C31.5 15.828 30.8295 16.5 30 16.5ZM33 27V33H3V27H33ZM36 24H0V36H36V24ZM4.5 31.5L5.7945 28.5H7.707L6.4125 31.5H4.5ZM7.599 31.5L8.8935 28.5H10.806L9.5115 31.5H7.599ZM10.6995 31.5L11.994 28.5H13.9065L12.6105 31.5H10.6995ZM13.7985 31.5L15.093 28.5H17.004L15.7095 31.5H13.7985ZM18.81 31.5H16.899L18.1935 28.5H20.106L18.81 31.5ZM30 31.5C29.172 31.5 28.5 30.828 28.5 30C28.5 29.172 29.172 28.5 30 28.5C30.8295 28.5 31.5 29.172 31.5 30C31.5 30.828 30.8295 31.5 30 31.5ZM6.6045 7.5H3L9 0H27L33 7.5H29.3955L25.395 3H10.605L6.6045 7.5Z" fill="#FFA800"/>
</svg>
