<svg width="32" height="32" viewBox="0 0 32 32" fill="none" xmlns="http://www.w3.org/2000/svg">
<path d="M16 0C7.164 0 0 7.164 0 16C0 24.836 7.164 32 16 32C24.836 32 32 24.836 32 16C32 7.164 24.836 0 16 0ZM16 2.66667C23.352 2.66667 29.3333 8.648 29.3333 16C29.3333 16.9133 29.24 17.8053 29.0653 18.6667H27.768C26.468 18.6667 26.2627 17.9907 25.56 15.3853C25.052 13.5 24.208 10.6507 22.3493 10.6507C20.456 10.6507 19.724 13.604 19.0427 15.992C18.672 17.2893 18.448 18.0733 18.116 18.0733C17.796 18.0733 17.6453 17.2893 17.2693 15.9893C16.5653 13.56 15.76 10.652 13.8813 10.652C11.9307 10.652 11.0973 13.8347 10.5387 15.8627C10.1333 17.336 10.0067 18.0747 9.64667 18.0747C9.34133 18.0747 9.24267 17.476 8.892 16.2827C8.08933 13.5627 7.83467 10.672 4.252 10.672H3.78533C5.84667 5.96533 10.5427 2.66667 16 2.66667ZM16 29.3333C8.648 29.3333 2.66667 23.352 2.66667 16C2.66667 15.0867 2.76 14.1947 2.93467 13.3333H4.36533C5.61867 13.3333 5.74133 13.9613 6.43467 16.58C6.90267 18.3507 7.76267 21.3147 9.64533 21.3147C11.552 21.3147 12.356 18.3013 13.084 15.8053C13.4787 14.452 13.564 13.8907 13.88 13.8907C14.2187 13.8907 14.3173 14.5133 14.704 15.8787C15.4027 18.3467 16.2107 21.3133 18.1147 21.3133C19.8213 21.3133 20.6373 18.8653 21.2293 16.8987C21.9067 14.6507 22.0053 13.816 22.3493 13.816C22.7013 13.816 22.7653 14.544 23.3733 16.5813C24.3533 19.8653 24.9787 21.3333 27.604 21.3333H28.212C26.1493 26.036 21.456 29.3333 16 29.3333Z" fill="#FFA800"/>
</svg>
