<svg width="28" height="30" viewBox="0 0 28 30" fill="none" xmlns="http://www.w3.org/2000/svg">
<path d="M14.9587 27.3662C14.08 27.4537 13.2375 27.5 12.51 27.5C8.245 27.5 2.5 26.2475 2.5 24.2325V21.6825C5.14625 23.36 8.9625 23.9075 12.51 23.9075C12.9338 23.9075 13.3612 23.8988 13.7875 23.8812C13.7125 23.0763 13.7425 22.2812 13.9488 21.3575C13.4388 21.39 12.9525 21.4075 12.51 21.4075C8.245 21.4075 2.5 20.1562 2.5 18.1412V15.1863C5.145 16.8625 8.9625 17.4112 12.51 17.4112C13.7863 17.4112 15.095 17.3363 16.3713 17.1663C18.7588 14.9587 22.125 14.425 25 15.6275V5.4525C25 1.25 17.5438 0 12.51 0C7.22875 0 0 1.25125 0 5.45125V24.5475C0 28.75 7.76125 30 12.51 30C13.8613 30 15.4587 29.8925 17.0537 29.6488C16.2175 29.03 15.505 28.255 14.9587 27.3662ZM12.51 2.5C17.0575 2.5 22.5 3.63625 22.5 5.45125C22.5 7.4275 16.12 8.4025 12.51 8.4025C8.245 8.40375 2.5 7.27125 2.5 5.45125C2.5 3.47125 8.515 2.5 12.51 2.5ZM2.5 8.67875C5.14625 10.3562 8.9625 10.9037 12.51 10.9037C16.0463 10.9037 19.855 10.3562 22.5 8.67875V11.6437C22.5 13.835 16.0863 14.9113 12.51 14.9113C8.2275 14.91 2.5 13.6525 2.5 11.6425V8.67875ZM21.875 17.5C18.7712 17.5 16.25 20.0187 16.25 23.125C16.25 26.2313 18.7712 28.75 21.875 28.75C24.9788 28.75 27.5 26.2313 27.5 23.125C27.5 20.0187 24.9788 17.5 21.875 17.5ZM25 23.75H22.5V26.25H21.25V23.75H18.75V22.5H21.25V20H22.5V22.5H25V23.75Z" fill="#FFA800"/>
</svg>
