<svg width="22" height="26" viewBox="0 0 22 26" fill="none" xmlns="http://www.w3.org/2000/svg">
<path fill-rule="evenodd" clip-rule="evenodd" d="M17.6 6.31481C16.3185 5.86844 15.4 4.66369 15.4 3.25C15.4 1.456 16.8784 -2.23873e-07 18.7 -1.44248e-07C20.5216 -6.4623e-08 22 1.456 22 3.25C22 4.66369 21.0815 5.86844 19.8 6.31481L19.8 21.125C19.8 23.816 17.5824 26 14.85 26C12.1176 26 9.90002 23.816 9.90002 21.125L9.90002 16.0648C8.61854 15.6184 7.69993 14.4137 7.69993 13C7.69993 11.5863 8.61854 10.3816 9.90002 9.93519L9.90002 4.875C9.90002 3.38 8.66798 2.16663 7.14997 2.16663C5.63197 2.16663 4.39993 3.38 4.39993 4.875L4.39993 19.6852C5.68153 20.1316 6.60001 21.3363 6.60001 22.75C6.60001 24.544 5.12161 26 3.30001 26C1.4784 26 8.34496e-07 24.544 9.12914e-07 22.75C9.74709e-07 21.3363 0.918483 20.1316 2.19997 19.6852L2.19997 4.875C2.19997 2.184 4.41757 -7.68552e-07 7.14997 -6.49115e-07C9.88238 -5.29678e-07 12.1 2.184 12.1 4.875L12.1 9.93519C13.3815 10.3816 14.2999 11.5863 14.2999 13C14.2999 14.4137 13.3815 15.6184 12.1 16.0648L12.1 21.125C12.1 22.62 13.332 23.8334 14.85 23.8334C16.368 23.8334 17.6 22.62 17.6 21.125L17.6 6.31481ZM12.1 13C12.1 13.598 11.6071 14.0834 10.9999 14.0834C10.3927 14.0834 9.90002 13.598 9.90002 13C9.90002 12.402 10.3927 11.9166 10.9999 11.9166C11.6071 11.9166 12.1 12.402 12.1 13Z" fill="#FFA800"/>
</svg>
