<svg width="32" height="32" viewBox="0 0 32 32" fill="none" xmlns="http://www.w3.org/2000/svg">
<path d="M16 2.66667C23.352 2.66667 29.3333 8.648 29.3333 16C29.3333 23.352 23.352 29.3333 16 29.3333C8.648 29.3333 2.66667 23.352 2.66667 16C2.66667 8.648 8.648 2.66667 16 2.66667ZM16 0C7.164 0 0 7.164 0 16C0 24.836 7.164 32 16 32C24.836 32 32 24.836 32 16C32 7.164 24.836 0 16 0ZM18.144 12.6347L16 5.33333L13.852 12.636C13.28 13.0027 12.8187 13.5133 12.4933 14.112L5.33333 16L12.4933 17.888C12.8173 18.4867 13.2787 18.9987 13.852 19.364L16 26.6667L18.1573 19.3613C18.728 18.9947 19.1853 18.4827 19.5093 17.8827L26.6667 16L19.5093 14.116C19.184 13.5133 18.72 13.0013 18.144 12.6347ZM16 18C14.896 18 14 17.104 14 16C14 14.896 14.896 14 16 14C17.104 14 18 14.896 18 16C18 17.104 17.104 18 16 18ZM23 23L19.5693 20.8147C20.044 20.4627 20.4627 20.0427 20.816 19.5693L23 23ZM19.4787 11.1187L22.9987 9.00133L20.8813 12.52C20.4947 11.9773 20.0213 11.5053 19.4787 11.1187ZM12.5253 20.8853L9 23L11.1187 19.4787C11.5053 20.0227 11.98 20.4973 12.5253 20.8853ZM11.1853 12.432L9.00133 9.00133L12.432 11.1853C11.956 11.5373 11.536 11.9573 11.1853 12.432Z" fill="#FFA800"/>
</svg>
