<svg width="11" height="10" viewBox="0 0 11 10" fill="none" xmlns="http://www.w3.org/2000/svg">
<path d="M10.9419 1.65724L10.0428 0.681568C10.0071 0.638444 9.95088 0.616882 9.89979 0.616882C9.8436 0.616882 9.79252 0.638444 9.75676 0.681568L3.52469 7.30646L1.25663 4.91309C1.21576 4.86996 1.16468 4.8484 1.1136 4.8484C1.06252 4.8484 1.01143 4.86996 0.970567 4.91309L0.061299 5.87259C-0.020433 5.95884 -0.020433 6.0936 0.061299 6.17985L2.92192 9.19851C3.10582 9.39257 3.33058 9.50577 3.51959 9.50577C3.79032 9.50577 4.0253 9.29554 4.11214 9.2093H4.11725L10.947 1.9645C11.0185 1.87286 11.0185 1.7381 10.9419 1.65724Z" fill="#FFA800"/>
</svg>
