<svg width="36" height="36" viewBox="0 0 36 36" fill="none" xmlns="http://www.w3.org/2000/svg">
<path d="M18 0C8.0595 0 0 8.0595 0 18C0 27.9405 8.0595 36 18 36C27.9405 36 36 27.9405 36 18C36 8.0595 27.9405 0 18 0ZM18 3C26.271 3 33 9.729 33 18C33 19.0275 32.895 20.031 32.6985 21H31.239C29.7765 21 29.5455 20.2395 28.755 17.3085C28.1835 15.1875 27.234 11.982 25.143 11.982C23.013 11.982 22.1895 15.3045 21.423 17.991C21.006 19.4505 20.754 20.3325 20.3805 20.3325C20.0205 20.3325 19.851 19.4505 19.428 17.988C18.636 15.255 17.73 11.9835 15.6165 11.9835C13.422 11.9835 12.4845 15.564 11.856 17.8455C11.4 19.503 11.2575 20.334 10.8525 20.334C10.509 20.334 10.398 19.6605 10.0035 18.318C9.1005 15.258 8.814 12.006 4.7835 12.006H4.2585C6.5775 6.711 11.8605 3 18 3ZM18 33C9.729 33 3 26.271 3 18C3 16.9725 3.105 15.969 3.3015 15H4.911C6.321 15 6.459 15.7065 7.239 18.6525C7.7655 20.6445 8.733 23.979 10.851 23.979C12.996 23.979 13.9005 20.589 14.7195 17.781C15.1635 16.2585 15.2595 15.627 15.615 15.627C15.996 15.627 16.107 16.3275 16.542 17.8635C17.328 20.64 18.237 23.9775 20.379 23.9775C22.299 23.9775 23.217 21.2235 23.883 19.011C24.645 16.482 24.756 15.543 25.143 15.543C25.539 15.543 25.611 16.362 26.295 18.654C27.3975 22.3485 28.101 24 31.0545 24H31.7385C29.418 29.2905 24.138 33 18 33Z" fill="#FFA800"/>
</svg>
